<svg width="95" height="96" viewBox="0 0 95 96" fill="none" xmlns="http://www.w3.org/2000/svg">
<g clip-path="url(#clip0_1_1972)">
<path d="M93.0427 24.9552C91.9475 20.8426 88.7389 17.6009 84.6699 16.4935C77.2357 14.4376 47.4991 14.4376 47.4991 14.4376C47.4991 14.4376 17.7631 14.4376 10.329 16.4152C6.33828 17.5218 3.05136 20.8434 1.95621 24.9552C0 32.4668 0 48.0454 0 48.0454C0 48.0454 0 63.7023 1.95621 71.1356C3.05209 75.2474 6.26001 78.4898 10.3297 79.5973C17.8414 81.6532 47.4998 81.6532 47.4998 81.6532C47.4998 81.6532 77.2357 81.6532 84.6699 79.6756C88.7396 78.5689 91.9475 75.3265 93.0434 71.2147C94.9996 63.7023 94.9996 48.1245 94.9996 48.1245C94.9996 48.1245 95.0779 32.4668 93.0427 24.9552Z" fill="#FF0000"/>
<path d="M38.0311 62.4374L62.7588 48.0454L38.0311 33.6534V62.4374Z" fill="white"/>
</g>
<defs>
<clipPath id="clip0_1_1972">
<rect width="95" height="96" fill="white"/>
</clipPath>
</defs>
</svg>
