<svg width="24" height="25" viewBox="0 0 24 25" fill="none" xmlns="http://www.w3.org/2000/svg">
<path fill-rule="evenodd" clip-rule="evenodd" d="M2.26884 5.01884C2.76113 4.52656 3.42881 4.25 4.125 4.25H15C15.4142 4.25 15.75 4.58579 15.75 5C15.75 5.41421 15.4142 5.75 15 5.75H4.125C3.82663 5.75 3.54048 5.86853 3.3295 6.0795C3.11853 6.29048 3 6.57663 3 6.875V18.125C3 18.4234 3.11853 18.7095 3.3295 18.9205C3.54048 19.1315 3.82663 19.25 4.125 19.25H19.8155C20.1138 19.25 20.4 19.1315 20.611 18.9205C20.8219 18.7095 20.9405 18.4234 20.9405 18.125V11.7031C20.9405 11.2889 21.2763 10.9531 21.6905 10.9531C22.1047 10.9531 22.4405 11.2889 22.4405 11.7031V18.125C22.4405 18.8212 22.1639 19.4889 21.6716 19.9812C21.1793 20.4734 20.5117 20.75 19.8155 20.75H4.125C3.42881 20.75 2.76113 20.4734 2.26884 19.9812C1.77656 19.4889 1.5 18.8212 1.5 18.125V6.875C1.5 6.17881 1.77656 5.51113 2.26884 5.01884Z" fill="#C6A26E"/>
<path fill-rule="evenodd" clip-rule="evenodd" d="M4.65802 7.53958C4.91232 7.21262 5.38353 7.15372 5.71049 7.40802L12.0069 12.3052L15.6263 9.57314C15.9569 9.3236 16.4272 9.3893 16.6768 9.71991C16.9263 10.0505 16.8606 10.5208 16.53 10.7704L12.4519 13.8486C12.1813 14.0529 11.8072 14.0502 11.5396 13.842L4.78958 8.59205C4.46262 8.33775 4.40372 7.86654 4.65802 7.53958Z" fill="#C6A26E"/>
<path d="M20.2477 8.74995C21.489 8.74995 22.4953 7.74364 22.4953 6.5023C22.4953 5.26095 21.489 4.25464 20.2477 4.25464C19.0063 4.25464 18 5.26095 18 6.5023C18 7.74364 19.0063 8.74995 20.2477 8.74995Z" fill="#C6A26E"/>
<path d="M20.25 9.49995C19.6571 9.49995 19.0775 9.32414 18.5846 8.99476C18.0916 8.66537 17.7074 8.1972 17.4805 7.64945C17.2536 7.1017 17.1943 6.49897 17.3099 5.91748C17.4256 5.33599 17.7111 4.80186 18.1303 4.38263C18.5495 3.9634 19.0837 3.6779 19.6652 3.56224C20.2467 3.44657 20.8494 3.50594 21.3971 3.73282C21.9449 3.95971 22.4131 4.34393 22.7424 4.83689C23.0718 5.32985 23.2476 5.90942 23.2476 6.5023C23.247 7.29713 22.931 8.05924 22.369 8.62127C21.8069 9.18331 21.0448 9.49933 20.25 9.49995ZM20.25 5.00464C19.9532 5.00418 19.663 5.09176 19.416 5.2563C19.169 5.42084 18.9764 5.65494 18.8625 5.92899C18.7486 6.20304 18.7186 6.50471 18.7762 6.79584C18.8338 7.08696 18.9765 7.35446 19.1861 7.56447C19.3958 7.77448 19.6631 7.91758 19.9541 7.97564C20.2452 8.03371 20.5469 8.00414 20.8211 7.89068C21.0953 7.77722 21.3297 7.58496 21.4947 7.33824C21.6596 7.09151 21.7476 6.80141 21.7476 6.50464C21.7476 6.10722 21.5899 5.72604 21.3091 5.44481C21.0283 5.16357 20.6474 5.00526 20.25 5.00464Z" fill="#C6A26E"/>
</svg>
