<svg width="24" height="25" viewBox="0 0 24 25" fill="none" xmlns="http://www.w3.org/2000/svg">
<path fill-rule="evenodd" clip-rule="evenodd" d="M12 2C12.6213 2 13.125 2.50368 13.125 3.125V5C13.125 5.62132 12.6213 6.125 12 6.125C11.3787 6.125 10.875 5.62132 10.875 5V3.125C10.875 2.50368 11.3787 2 12 2Z" fill="#C6A26E"/>
<path fill-rule="evenodd" clip-rule="evenodd" d="M12 18.875C12.6213 18.875 13.125 19.3787 13.125 20V21.875C13.125 22.4963 12.6213 23 12 23C11.3787 23 10.875 22.4963 10.875 21.875V20C10.875 19.3787 11.3787 18.875 12 18.875Z" fill="#C6A26E"/>
<path fill-rule="evenodd" clip-rule="evenodd" d="M7.83323 6.26398C9.06659 5.43987 10.5166 5 12 5C13.9891 5 15.8968 5.79018 17.3033 7.1967C18.7098 8.60322 19.5 10.5109 19.5 12.5C19.5 13.9834 19.0601 15.4334 18.236 16.6668C17.4119 17.9001 16.2406 18.8614 14.8701 19.4291C13.4997 19.9968 11.9917 20.1453 10.5368 19.8559C9.08197 19.5665 7.7456 18.8522 6.6967 17.8033C5.64781 16.7544 4.9335 15.418 4.64411 13.9632C4.35472 12.5083 4.50325 11.0003 5.07091 9.62987C5.63856 8.25943 6.59986 7.08809 7.83323 6.26398ZM12 6.5C10.8133 6.5 9.65328 6.85189 8.66658 7.51118C7.67989 8.17047 6.91085 9.10754 6.45673 10.2039C6.0026 11.3003 5.88378 12.5067 6.11529 13.6705C6.3468 14.8344 6.91825 15.9035 7.75736 16.7426C8.59648 17.5818 9.66558 18.1532 10.8295 18.3847C11.9933 18.6162 13.1997 18.4974 14.2961 18.0433C15.3925 17.5892 16.3295 16.8201 16.9888 15.8334C17.6481 14.8467 18 13.6867 18 12.5C18 10.9087 17.3679 9.38258 16.2426 8.25736C15.1174 7.13214 13.5913 6.5 12 6.5Z" fill="#C6A26E"/>
<path fill-rule="evenodd" clip-rule="evenodd" d="M18.375 12.5C18.375 11.8787 18.8787 11.375 19.5 11.375H21.375C21.9963 11.375 22.5 11.8787 22.5 12.5C22.5 13.1213 21.9963 13.625 21.375 13.625H19.5C18.8787 13.625 18.375 13.1213 18.375 12.5Z" fill="#C6A26E"/>
<path fill-rule="evenodd" clip-rule="evenodd" d="M1.5 12.5C1.5 11.8787 2.00368 11.375 2.625 11.375H4.5C5.12132 11.375 5.625 11.8787 5.625 12.5C5.625 13.1213 5.12132 13.625 4.5 13.625H2.625C2.00368 13.625 1.5 13.1213 1.5 12.5Z" fill="#C6A26E"/>
</svg>
