<svg width="24" height="25" viewBox="0 0 24 25" fill="none" xmlns="http://www.w3.org/2000/svg">
<path d="M12.0003 12.5C9.52064 12.5 7.33626 10.1703 7.12532 7.30625C7.01751 5.85312 7.46751 4.50781 8.39095 3.51875C9.30032 2.53906 10.5847 2 12.0003 2C13.4066 2 14.6863 2.54375 15.6003 3.52812C16.5284 4.52656 16.9784 5.86719 16.8706 7.30625C16.6597 10.1703 14.4753 12.5 12.0003 12.5ZM12.0003 3.5C11.0066 3.5 10.1113 3.87031 9.48782 4.54062C8.85501 5.22031 8.54564 6.16719 8.62064 7.19844C8.77064 9.26094 10.3175 11.0047 11.9956 11.0047C13.6738 11.0047 15.2206 9.26094 15.3706 7.19844C15.4456 6.18125 15.1363 5.23906 14.4941 4.55C13.8753 3.87031 12.9847 3.5 12.0003 3.5Z" fill="#C6A26E"/>
<path d="M20.2503 23H3.75035C3.30035 23 2.89722 22.8124 2.61597 22.4796C2.31129 22.114 2.18941 21.6171 2.27847 21.1156C2.67222 18.9218 3.90972 17.075 5.85035 15.7859C7.57535 14.6375 9.75972 14.0046 12.0003 14.0046C14.241 14.0046 16.4253 14.6375 18.1503 15.7859C20.091 17.0796 21.3285 18.9218 21.7222 21.1156C21.8113 21.6171 21.6894 22.114 21.3847 22.4796C21.1035 22.8124 20.7003 23 20.2503 23ZM3.75972 21.5H20.241C20.2503 21.4765 20.255 21.439 20.2457 21.3781C19.5191 17.3421 15.4597 15.5 12.0003 15.5C8.54097 15.5 4.4816 17.3421 3.75504 21.3781C3.74566 21.439 3.75035 21.4765 3.75972 21.5Z" fill="#C6A26E"/>
</svg>
