<svg width="60" height="60" viewBox="0 0 60 60" fill="none" xmlns="http://www.w3.org/2000/svg">
<circle cx="30" cy="30" r="30" transform="rotate(-90 30 30)" fill="#FFD79D" fill-opacity="0.8"/>
<path d="M30.6214 23.6913L41.9964 35.0663C42.0784 35.1476 42.1435 35.2444 42.1879 35.351C42.2324 35.4577 42.2552 35.572 42.2552 35.6876C42.2552 35.8031 42.2324 35.9174 42.1879 36.0241C42.1435 36.1307 42.0784 36.2275 41.9964 36.3088C41.9151 36.3908 41.8183 36.4559 41.7117 36.5003C41.605 36.5448 41.4907 36.5676 41.3752 36.5676C41.2597 36.5676 41.1453 36.5448 41.0387 36.5003C40.932 36.4559 40.8353 36.3908 40.7539 36.3088L30.0002 25.5463L19.2464 36.3088C19.0816 36.4736 18.8582 36.5661 18.6252 36.5661C18.5098 36.5661 18.3955 36.5434 18.2889 36.4993C18.1823 36.4551 18.0855 36.3904 18.0039 36.3088C17.9223 36.2272 17.8576 36.1304 17.8135 36.0238C17.7693 35.9172 17.7466 35.8029 17.7466 35.6876C17.7466 35.4545 17.8391 35.2311 18.0039 35.0663L29.3789 23.6913C29.4603 23.6093 29.557 23.5442 29.6637 23.4998C29.7703 23.4553 29.8847 23.4325 30.0002 23.4325C30.1157 23.4325 30.23 23.4553 30.3367 23.4998C30.4433 23.5442 30.5401 23.6093 30.6214 23.6913Z" fill="#C6A26E"/>
</svg>
